<svg xmlns="http://www.w3.org/2000/svg" viewBox="0 0 256 256">
  <style>.toy{animation:bob 3.6s ease-in-out infinite;transform-origin:128px 140px}@keyframes bob{0%,100%{transform:translateY(0)}50%{transform:translateY(-7px)}}</style>
  <defs>
    <radialGradient id="bg" cx="36%" cy="22%"><stop offset="0" stop-color="#fff9df"/><stop offset="1" stop-color="#ffd66b"/></radialGradient>
    <linearGradient id="fur" x1="66" y1="42" x2="188" y2="220"><stop stop-color="#ffbd55"/><stop offset=".6" stop-color="#d97828"/><stop offset="1" stop-color="#aa4d20"/></linearGradient>
    <linearGradient id="cream" x1="94" y1="98" x2="160" y2="205"><stop stop-color="#fff9ed"/><stop offset="1" stop-color="#ffe4bf"/></linearGradient>
    <filter id="soft" x="-30%" y="-30%" width="160%" height="170%"><feDropShadow dx="0" dy="15" stdDeviation="10" flood-color="#9a5719" flood-opacity=".24"/></filter>
  </defs>
  <circle cx="128" cy="128" r="112" fill="url(#bg)"/><ellipse cx="128" cy="215" rx="65" ry="14" fill="#9a5719" opacity=".14"/>
  <g class="toy" filter="url(#soft)">
    <path d="M72 98 96 40l30 46h4l30-46 24 58v54c0 42-24 68-56 68s-56-26-56-68z" fill="url(#fur)"/>
    <path d="m97 74 4-17 13 25zm62 0-4-17-13 25z" fill="#ffe6c9"/>
    <path d="M84 124c12-22 76-22 88 0v35c0 31-20 51-44 51s-44-20-44-51z" fill="url(#cream)"/>
    <path d="M86 123c11-10 26-15 42-15s31 5 42 15c-9-20-25-32-42-32s-33 12-42 32z" fill="#fff6e9"/>
    <circle cx="107" cy="140" r="15" fill="#4b2d20"/><circle cx="149" cy="140" r="15" fill="#4b2d20"/>
    <circle cx="102" cy="134" r="5" fill="#fff"/><circle cx="144" cy="134" r="5" fill="#fff"/>
    <ellipse cx="128" cy="164" rx="33" ry="25" fill="#fff3df"/>
    <path d="M118 154h20l-10 11z" fill="#2b1d16"/>
    <path d="M112 176c10 10 22 10 32 0" fill="none" stroke="#2b1d16" stroke-width="6" stroke-linecap="round"/>
    <path d="M129 178c4 15 18 20 28 8" fill="#ef735f"/>
    <circle cx="92" cy="156" r="13" fill="#ff9b8d" opacity=".5"/><circle cx="164" cy="156" r="13" fill="#ff9b8d" opacity=".5"/>
    <path d="M92 90c9-11 20-17 36-17s27 6 36 17" fill="none" stroke="#c15e23" stroke-width="6" stroke-linecap="round" opacity=".35"/>
  </g>
</svg>
