<svg xmlns="http://www.w3.org/2000/svg" viewBox="0 0 256 256">
  <style>.toy{animation:bob 3.5s ease-in-out infinite;transform-origin:128px 140px}@keyframes bob{0%,100%{transform:translateY(0)}50%{transform:translateY(-8px)}}</style>
  <defs>
    <radialGradient id="bg" cx="36%" cy="22%"><stop offset="0" stop-color="#fff7fb"/><stop offset="1" stop-color="#ffbdd4"/></radialGradient>
    <linearGradient id="fur" x1="80" y1="28" x2="176" y2="218"><stop stop-color="#fff"/><stop offset=".7" stop-color="#f9f6ef"/><stop offset="1" stop-color="#e7ded4"/></linearGradient>
    <filter id="soft" x="-30%" y="-30%" width="160%" height="170%"><feDropShadow dx="0" dy="15" stdDeviation="10" flood-color="#945268" flood-opacity=".22"/></filter>
  </defs>
  <circle cx="128" cy="128" r="112" fill="url(#bg)"/><ellipse cx="128" cy="215" rx="60" ry="14" fill="#9b5a70" opacity=".13"/>
  <g class="toy" filter="url(#soft)">
    <path d="M92 106c-15-39-12-78 9-82 22-4 32 40 28 83zm72 0c15-39 12-78-9-82-22-4-32 40-28 83z" fill="url(#fur)"/>
    <path d="M101 96c-8-29-6-54 2-56 9-2 17 28 15 58zm54 0c8-29 6-54-2-56-9-2-17 28-15 58z" fill="#f8abc1"/>
    <path d="M75 129c0-36 24-60 53-60s53 24 53 60v28c0 35-22 58-53 58s-53-23-53-58z" fill="url(#fur)"/>
    <circle cx="108" cy="143" r="14" fill="#3b3430"/><circle cx="148" cy="143" r="14" fill="#3b3430"/>
    <circle cx="103" cy="138" r="5" fill="#fff"/><circle cx="143" cy="138" r="5" fill="#fff"/>
    <circle cx="91" cy="160" r="13" fill="#ffd0dc"/><circle cx="165" cy="160" r="13" fill="#ffd0dc"/>
    <path d="M120 161h16l-8 9z" fill="#ef7896"/>
    <path d="M113 178c10 9 20 9 30 0" fill="none" stroke="#555" stroke-width="5" stroke-linecap="round"/>
    <circle cx="101" cy="105" r="13" fill="#fff" opacity=".35"/>
  </g>
</svg>
